<svg width="649.9811767578125px" height="122px" xmlns="http://www.w3.org/2000/svg" viewBox="-74.99058837890624 14 649.9811767578125 122" style="background: rgb(238, 0, 0);" preserveAspectRatio="xMidYMid"><defs><filter id="editing-lego" x="-100%" y="-100%" width="300%" height="300%"><feFlood flood-color="#000" result="f1"></feFlood><feFlood flood-color="#ffff00" result="f2"></feFlood><feMorphology operator="dilate" radius="3" in="SourceAlpha"></feMorphology><feConvolveMatrix order="5,5" divisor="1" result="cm1" kernelMatrix="0 1 1 1 0  1 0 0 0 1  1 0 0 0 1  1 0 0 0 1  0 1 1 1 0"></feConvolveMatrix><feComposite operator="in" in="f1" in2="cm1" result="c1"></feComposite><feMorphology operator="dilate" radius="3"></feMorphology><feConvolveMatrix order="5,5" divisor="1" result="cm2" kernelMatrix="0 1 1 1 0  1 0 0 0 1  1 0 0 0 1  1 0 0 0 1  0 1 1 1 0"></feConvolveMatrix><feComposite operator="in" in="f2" in2="cm2" result="c2"></feComposite><feMerge><feMergeNode in="c2"></feMergeNode><feMergeNode in="c1"></feMergeNode><feMergeNode in="SourceGraphic"></feMergeNode></feMerge></filter></defs><g filter="url(#editing-lego)"><g transform="translate(18.129985809326172, 106.6150016784668)"><path d="M14.21 0L6.91 0L6.91-46.08L14.21-46.08L14.21 0ZM27.52 0L27.52-23.30L27.52-23.30Q27.52-29.06 26.37-33.66L26.37-33.66L31.74-34.37L32.96-31.17L32.96-31.17Q38.40-34.94 44.13-34.94L44.13-34.94L44.13-34.94Q49.86-34.94 52.54-31.23L52.54-31.23L52.54-31.23Q57.73-34.94 63.65-34.94L63.65-34.94L63.65-34.94Q69.57-34.94 72.22-31.81L72.22-31.81L72.22-31.81Q74.88-28.67 74.88-22.40L74.88-22.40L74.88 0L67.97 0L67.97-21.12L67.97-21.12Q67.97-27.33 65.02-28.86L65.02-28.86L65.02-28.86Q63.74-29.57 61.76-29.57L61.76-29.57L61.76-29.57Q58.43-29.57 54.34-26.69L54.34-26.69L54.34-26.69Q54.72-24.70 54.72-22.40L54.72-22.40L54.72 0L47.81 0L47.81-21.12L47.81-21.12Q47.81-25.09 46.59-27.33L46.59-27.33L46.59-27.33Q45.38-29.57 41.66-29.57L41.66-29.57L41.66-29.57Q37.95-29.57 34.43-26.82L34.43-26.82L34.43 0L27.52 0ZM112.26-32.06L112.26-32.06L112.26-8.13L112.26-8.13Q112.26-5.89 112.77-5.15L112.77-5.15L112.77-5.15Q113.28-4.42 115.26-4.42L115.26-4.42L115.52-0.38L115.52-0.38Q113.92 0.19 112.13 0.19L112.13 0.19L112.13 0.19Q107.14 0.19 106.18-4.35L106.18-4.35L106.18-4.35Q102.78 0.77 96.16 0.77L96.16 0.77L96.16 0.77Q89.54 0.77 86.30-4.16L86.30-4.16L86.30-4.16Q83.07-9.09 83.07-16.86L83.07-16.86L83.07-16.86Q83.07-24.64 87.49-29.79L87.49-29.79L87.49-29.79Q91.90-34.94 99.33-34.94L99.33-34.94L99.33-34.94Q102.34-34.94 106.34-34.02L106.34-34.02L106.34-34.02Q110.34-33.09 112.26-32.06ZM90.37-16.32L90.37-16.32L90.37-16.32Q90.37-10.11 92.26-7.36L92.26-7.36L92.26-7.36Q94.14-4.61 97.73-4.61L97.73-4.61L97.73-4.61Q101.31-4.61 103.33-7.14L103.33-7.14L103.33-7.14Q105.34-9.66 105.34-13.38L105.34-13.38L105.34-28.74L105.34-28.74Q102.85-29.57 99.65-29.57L99.65-29.57L99.65-29.57Q94.78-29.57 92.58-26.05L92.58-26.05L92.58-26.05Q90.37-22.53 90.37-16.32ZM151.23-31.87L151.23-31.87L151.23-2.05L151.23-2.05Q151.23 5.76 147.17 9.92L147.17 9.92L147.17 9.92Q143.10 14.08 135.62 14.08L135.62 14.08L135.62 14.08Q131.01 14.08 128.74 13.44L128.74 13.44L128.74 13.44Q126.46 12.80 125.41 12.45L125.41 12.45L125.41 12.45Q124.35 12.10 124.22 12.10L124.22 12.10L125.70 6.91L125.70 6.91Q130.05 8.51 133.38 8.51L133.38 8.51L133.38 8.51Q136.70 8.51 138.37 8.13L138.37 8.13L138.37 8.13Q140.03 7.74 141.50 6.59L141.50 6.59L141.50 6.59Q144.32 4.42 144.32-2.88L144.32-2.88L144.32-3.90L144.32-3.90Q143.17-2.11 140.80-0.67L140.80-0.67L140.80-0.67Q138.43 0.77 135.10 0.77L135.10 0.77L135.10 0.77Q129.60 0.77 125.82-3.39L125.82-3.39L125.82-3.39Q122.05-7.55 122.05-16.16L122.05-16.16L122.05-16.16Q122.05-24.77 126.14-29.86L126.14-29.86L126.14-29.86Q130.24-34.94 138.50-34.94L138.50-34.94L138.50-34.94Q144.96-34.94 151.23-31.87ZM129.34-16.77L129.34-16.77L129.34-16.77Q129.34-10.05 131.26-7.33L131.26-7.33L131.26-7.33Q133.18-4.61 136.80-4.61L136.80-4.61L136.80-4.61Q140.42-4.61 142.37-7.17L142.37-7.17L142.37-7.17Q144.32-9.73 144.32-13.25L144.32-13.25L144.32-28.74L144.32-28.74Q142.02-29.57 138.94-29.57L138.94-29.57L138.94-29.57Q133.76-29.57 131.55-26.53L131.55-26.53L131.55-26.53Q129.34-23.49 129.34-16.77ZM184.19-7.30L184.19-7.30L186.56-2.94L186.56-2.94Q185.47-1.92 181.95-0.58L181.95-0.58L181.95-0.58Q178.43 0.77 174.40 0.77L174.40 0.77L174.40 0.77Q167.23 0.77 162.85-3.58L162.85-3.58L162.85-3.58Q158.46-7.94 158.46-16.64L158.46-16.64L158.46-16.64Q158.46-21.44 160-25.12L160-25.12L160-25.12Q161.54-28.80 163.97-30.85L163.97-30.85L163.97-30.85Q168.96-34.94 174.43-34.94L174.43-34.94L174.43-34.94Q179.90-34.94 183.14-32.16L183.14-32.16L183.14-32.16Q186.37-29.38 186.37-25.34L186.37-25.34L186.37-25.34Q186.37-20.03 181.31-16.67L181.31-16.67L181.31-16.67Q176.26-13.31 165.12-13.31L165.12-13.31L165.12-13.31Q165.12-10.37 167.58-7.49L167.58-7.49L167.58-7.49Q170.05-4.61 174.88-4.61L174.88-4.61L174.88-4.61Q179.71-4.61 184.19-7.30ZM180.16-24.77L180.16-24.77L180.16-24.77Q180.16-26.69 178.72-28.13L178.72-28.13L178.72-28.13Q177.28-29.57 174.66-29.57L174.66-29.57L174.66-29.57Q170.43-29.57 167.71-26.40L167.71-26.40L167.71-26.40Q164.99-23.23 164.93-18.11L164.93-18.11L164.93-18.11Q180.16-18.11 180.16-24.77ZM191.49-1.73L191.49-1.73L192.96-6.91L192.96-6.91Q198.21-4.61 201.98-4.61L201.98-4.61L201.98-4.61Q208.51-4.61 208.51-9.02L208.51-9.02L208.51-9.02Q208.51-12.48 202.24-14.78L202.24-14.78L202.24-14.78Q199.81-15.68 198.59-16.22L198.59-16.22L198.59-16.22Q197.38-16.77 195.58-17.92L195.58-17.92L195.58-17.92Q192.06-20.22 192.06-24.86L192.06-24.86L192.06-24.86Q192.06-29.50 195.36-32.16L195.36-32.16L195.36-32.16Q198.66-34.82 204.29-34.82L204.29-34.82L204.29-34.82Q209.98-34.82 214.08-32.90L214.08-32.90L214.08-32.90Q214.85-32.58 214.91-32.58L214.91-32.58L213.57-27.39L213.57-27.39Q208.90-29.44 205.25-29.44L205.25-29.44L205.25-29.44Q198.85-29.44 198.85-25.09L198.85-25.09L198.85-25.09Q198.85-23.81 199.52-23.14L199.52-23.14L199.52-23.14Q200.19-22.46 200.58-22.18L200.58-22.18L200.58-22.18Q200.96-21.89 201.86-21.47L201.86-21.47L201.86-21.47Q202.75-21.06 203.17-20.90L203.17-20.90L203.17-20.90Q203.58-20.74 204.74-20.29L204.74-20.29L204.74-20.29Q205.89-19.84 207.07-19.42L207.07-19.42L207.07-19.42Q208.26-19.01 209.57-18.30L209.57-18.30L209.57-18.30Q210.88-17.60 212.35-16.38L212.35-16.38L212.35-16.38Q215.30-13.95 215.30-8.96L215.30-8.96L215.30-8.96Q215.30-5.57 213.31-3.33L213.31-3.33L213.31-3.33Q209.79 0.77 201.54 0.77L201.54 0.77L201.54 0.77Q196.03 0.77 191.49-1.73ZM240.58-23.23L240.58-23.23L240.58-23.23Q240.58-37.70 249.92-43.65L249.92-43.65L249.92-43.65Q254.85-46.85 262.02-46.85L262.02-46.85L262.02-46.85Q269.12-46.85 275.39-44.54L275.39-44.54L275.39-44.54Q276.22-44.22 276.29-44.22L276.29-44.22L274.43-38.59L274.43-38.59Q274.37-38.59 273.57-38.82L273.57-38.82L273.57-38.82Q272.77-39.04 271.97-39.26L271.97-39.26L271.97-39.26Q271.17-39.49 269.89-39.74L269.89-39.74L269.89-39.74Q268.61-40 267.46-40.19L267.46-40.19L267.46-40.19Q264.90-40.70 262.02-40.70L262.02-40.70L262.02-40.70Q254.85-40.70 251.55-36.67L251.55-36.67L251.55-36.67Q248.26-32.64 248.26-23.10L248.26-23.10L248.26-23.10Q248.26-12.29 252.03-8.64L252.03-8.64L252.03-8.64Q253.95-6.78 256.26-6.08L256.26-6.08L256.26-6.08Q258.56-5.38 261.70-5.38L261.70-5.38L261.70-5.38Q264.83-5.38 269.89-5.82L269.89-5.82L269.89-19.71L277.18-20.54L277.18-1.66L277.18-1.66Q277.12-1.66 275.97-1.38L275.97-1.38L275.97-1.38Q274.82-1.09 273.86-0.86L273.86-0.86L273.86-0.86Q272.90-0.64 271.20-0.32L271.20-0.32L271.20-0.32Q269.50 0 267.97 0.26L267.97 0.26L267.97 0.26Q264.13 0.77 260.42 0.77L260.42 0.77L260.42 0.77Q250.88 0.77 245.73-5.31L245.73-5.31L245.73-5.31Q240.58-11.39 240.58-23.23ZM313.15-32.06L313.15-32.06L313.15-8.13L313.15-8.13Q313.15-5.89 313.66-5.15L313.66-5.15L313.66-5.15Q314.18-4.42 316.16-4.42L316.16-4.42L316.42-0.38L316.42-0.38Q314.82 0.19 313.02 0.19L313.02 0.19L313.02 0.19Q308.03 0.19 307.07-4.35L307.07-4.35L307.07-4.35Q303.68 0.77 297.06 0.77L297.06 0.77L297.06 0.77Q290.43 0.77 287.20-4.16L287.20-4.16L287.20-4.16Q283.97-9.09 283.97-16.86L283.97-16.86L283.97-16.86Q283.97-24.64 288.38-29.79L288.38-29.79L288.38-29.79Q292.80-34.94 300.22-34.94L300.22-34.94L300.22-34.94Q303.23-34.94 307.23-34.02L307.23-34.02L307.23-34.02Q311.23-33.09 313.15-32.06ZM291.26-16.32L291.26-16.32L291.26-16.32Q291.26-10.11 293.15-7.36L293.15-7.36L293.15-7.36Q295.04-4.61 298.62-4.61L298.62-4.61L298.62-4.61Q302.21-4.61 304.22-7.14L304.22-7.14L304.22-7.14Q306.24-9.66 306.24-13.38L306.24-13.38L306.24-28.74L306.24-28.74Q303.74-29.57 300.54-29.57L300.54-29.57L300.54-29.57Q295.68-29.57 293.47-26.05L293.47-26.05L293.47-26.05Q291.26-22.53 291.26-16.32ZM326.27-10.43L326.27-48.26L333.18-49.15L333.18-10.56L333.18-10.56Q333.18-4.61 336.58-4.61L336.58-4.61L336.58-4.61Q337.41-4.61 339.65-5.06L339.65-5.06L340.48-0.32L340.48-0.32Q340.42-0.32 339.94-0.13L339.94-0.13L339.94-0.13Q339.46 0.06 338.82 0.26L338.82 0.26L338.82 0.26Q337.22 0.77 334.91 0.77L334.91 0.77L334.91 0.77Q330.50 0.77 328.38-2.21L328.38-2.21L328.38-2.21Q326.27-5.18 326.27-10.43L326.27-10.43ZM346.94-10.43L346.94-48.26L353.86-49.15L353.86-10.56L353.86-10.56Q353.86-4.61 357.25-4.61L357.25-4.61L357.25-4.61Q358.08-4.61 360.32-5.06L360.32-5.06L361.15-0.32L361.15-0.32Q361.09-0.32 360.61-0.13L360.61-0.13L360.61-0.13Q360.13 0.06 359.49 0.26L359.49 0.26L359.49 0.26Q357.89 0.77 355.58 0.77L355.58 0.77L355.58 0.77Q351.17 0.77 349.06-2.21L349.06-2.21L349.06-2.21Q346.94-5.18 346.94-10.43L346.94-10.43ZM390.02-7.30L390.02-7.30L392.38-2.94L392.38-2.94Q391.30-1.92 387.78-0.58L387.78-0.58L387.78-0.58Q384.26 0.77 380.22 0.77L380.22 0.77L380.22 0.77Q373.06 0.77 368.67-3.58L368.67-3.58L368.67-3.58Q364.29-7.94 364.29-16.64L364.29-16.64L364.29-16.64Q364.29-21.44 365.82-25.12L365.82-25.12L365.82-25.12Q367.36-28.80 369.79-30.85L369.79-30.85L369.79-30.85Q374.78-34.94 380.26-34.94L380.26-34.94L380.26-34.94Q385.73-34.94 388.96-32.16L388.96-32.16L388.96-32.16Q392.19-29.38 392.19-25.34L392.19-25.34L392.19-25.34Q392.19-20.03 387.14-16.67L387.14-16.67L387.14-16.67Q382.08-13.31 370.94-13.31L370.94-13.31L370.94-13.31Q370.94-10.37 373.41-7.49L373.41-7.49L373.41-7.49Q375.87-4.61 380.70-4.61L380.70-4.61L380.70-4.61Q385.54-4.61 390.02-7.30ZM385.98-24.77L385.98-24.77L385.98-24.77Q385.98-26.69 384.54-28.13L384.54-28.13L384.54-28.13Q383.10-29.57 380.48-29.57L380.48-29.57L380.48-29.57Q376.26-29.57 373.54-26.40L373.54-26.40L373.54-26.40Q370.82-23.23 370.75-18.11L370.75-18.11L370.75-18.11Q385.98-18.11 385.98-24.77ZM401.54 0L401.54-23.30L401.54-23.30Q401.54-29.06 400.38-33.66L400.38-33.66L405.76-34.37L407.36-30.21L407.36-30.21Q411.39-34.94 416.45-34.94L416.45-34.94L416.45-34.94Q419.84-34.94 421.73-33.34L421.73-33.34L421.73-33.34Q423.62-31.74 423.62-28.80L423.62-28.80L423.62-28.80Q423.62-25.86 422.66-23.62L422.66-23.62L417.15-24.32L417.15-24.32Q417.15-27.20 416.61-28.38L416.61-28.38L416.61-28.38Q416.06-29.57 414.37-29.57L414.37-29.57L414.37-29.57Q412.67-29.57 411.04-28.22L411.04-28.22L411.04-28.22Q409.41-26.88 408.45-25.22L408.45-25.22L408.45 0L401.54 0ZM429.82 12.10L431.30 6.91L431.30 6.91Q435.65 8.51 440.26 8.51L440.26 8.51L440.26 8.51Q444.86 8.51 447.39 6.40L447.39 6.40L447.39 6.40Q449.92 4.29 449.92-1.92L449.92-1.92L449.92-1.92Q445.89 0.77 440.51 0.77L440.51 0.77L440.51 0.77Q435.14 0.77 432.13-2.85L432.13-2.85L432.13-2.85Q429.12-6.46 429.12-11.78L429.12-11.78L429.12-33.73L436.03-34.62L436.03-13.06L436.03-13.06Q436.03-4.61 442.75-4.61L442.75-4.61L442.75-4.61Q447.94-4.61 449.92-7.49L449.92-7.49L449.92-33.73L456.83-34.62L456.83-2.05L456.83-2.05Q456.83 5.76 452.77 9.92L452.77 9.92L452.77 9.92Q448.70 14.08 441.22 14.08L441.22 14.08L441.22 14.08Q436.61 14.08 434.34 13.44L434.34 13.44L434.34 13.44Q432.06 12.80 431.01 12.45L431.01 12.45L431.01 12.45Q429.95 12.10 429.82 12.10L429.82 12.10Z" fill="#fff"></path></g></g><style>text {
  font-size: 64px;
  font-family: Arial Black;
  dominant-baseline: central;
  text-anchor: middle;
}</style></svg>